<?xml version="1.0" encoding="UTF-8"?>
<svg id="_板南線" data-name="板南線" xmlns="http://www.w3.org/2000/svg" version="1.1" viewBox="0 0 1763.19 1080">
  <!-- Generator: Adobe Illustrator 29.8.1, SVG Export Plug-In . SVG Version: 2.1.1 Build 2)  -->
  <defs>
    <style>
      .st0 {
        fill: #1d89bf;
      }

      .st1 {
        fill: #a4c97c;
      }

      .st2 {
        fill: #fff6d8;
      }

      .st3 {
        fill: #0062b3;
      }

      .st4 {
        fill: #1996e1;
      }
    </style>
  </defs>
  <rect id="_綠色底色" data-name="綠色底色" class="st1" width="1763.19" height="1080"/>
  <g id="blue_x5F_line">
    <path id="_米白底色" data-name="米白底色" class="st2" d="M1636.29,257.52c-30.2,0-54.76,24.57-54.76,54.77v170.65c0,10.96-8.92,19.88-19.88,19.88h-982.73c-30.2,0-54.77,24.57-54.77,54.77v378.09c0,30.2,24.57,54.76,54.77,54.76h177.28v-34.88h-177.28c-10.96,0-19.88-8.92-19.88-19.88v-378.09c0-10.96,8.92-19.88,19.88-19.88h982.73c30.2,0,54.77-24.57,54.77-54.77v-170.65c0-10.96,8.92-19.88,19.88-19.88h18.35v-34.88h-18.35Z"/>
    <path id="_板南線藍" data-name="板南線藍" class="st4" d="M1636.29,262.52c-27.44,0-49.76,22.32-49.76,49.77v76.42h0v94.23c0,13.72-11.16,24.88-24.88,24.88h-330.69s-652.04,0-652.04,0c-27.44,0-49.77,22.32-49.77,49.77v378.09c0,27.44,22.32,49.77,49.77,49.77h172.28v-24.88h-172.28c-13.72,0-24.88-11.16-24.88-24.88v-378.09c0-13.72,11.16-24.88,24.88-24.88h930.11s52.62,0,52.62,0c27.44,0,49.77-22.32,49.77-49.77v-98.75s0-71.9,0-71.9c0-13.72,11.16-24.88,24.88-24.88h13.35v-24.88h-13.35Z"/>
    <path id="_藍框" data-name="藍框" class="st0" d="M752.69,986.94h-173.78c-28.27,0-51.27-23-51.27-51.26v-378.09c0-28.27,23-51.27,51.27-51.27h982.73c12.89,0,23.38-10.49,23.38-23.38v-170.65c0-28.27,23-51.27,51.26-51.27h14.85v27.88h-14.85c-12.89,0-23.38,10.49-23.38,23.38v170.65c0,28.27-23,51.26-51.27,51.26h-982.73c-12.89,0-23.38,10.49-23.38,23.38v378.09c0,12.89,10.49,23.38,23.38,23.38h173.78v27.88ZM578.91,509.32c-26.61,0-48.27,21.65-48.27,48.27v378.09c0,26.61,21.65,48.26,48.27,48.26h170.78v-21.88h-170.78c-14.55,0-26.38-11.83-26.38-26.38v-378.09c0-14.55,11.84-26.38,26.38-26.38h982.73c26.61,0,48.27-21.65,48.27-48.27v-170.65c0-14.55,11.83-26.38,26.38-26.38h11.85v-21.88h-11.85c-26.61,0-48.26,21.65-48.26,48.27v170.65c0,14.55-11.83,26.38-26.38,26.38h-982.73Z"/>
  </g>
  <g id="BL01">
    <circle class="st2" cx="740.87" cy="974.22" r="20.31"/>
    <path class="st3" d="M740.87,999.02c-13.67,0-24.8-11.12-24.8-24.8s11.12-24.8,24.8-24.8,24.8,11.12,24.8,24.8-11.12,24.8-24.8,24.8ZM740.87,958.39c-8.73,0-15.83,7.1-15.83,15.83s7.1,15.83,15.83,15.83,15.83-7.1,15.83-15.83-7.1-15.83-15.83-15.83Z"/>
  </g>
  <g id="BL02">
    <circle class="st2" cx="663.03" cy="974.22" r="20.31"/>
    <path class="st3" d="M663.03,999.02c-13.67,0-24.8-11.12-24.8-24.8s11.12-24.8,24.8-24.8,24.8,11.12,24.8,24.8-11.12,24.8-24.8,24.8ZM663.03,958.39c-8.73,0-15.83,7.1-15.83,15.83s7.1,15.83,15.83,15.83,15.83-7.1,15.83-15.83-7.1-15.83-15.83-15.83Z"/>
  </g>
  <g id="BL03">
    <circle class="st2" cx="587.36" cy="974.22" r="20.31"/>
    <path class="st3" d="M587.36,999.02c-13.67,0-24.8-11.12-24.8-24.8s11.12-24.8,24.8-24.8,24.8,11.12,24.8,24.8-11.12,24.8-24.8,24.8ZM587.36,958.39c-8.73,0-15.83,7.1-15.83,15.83s7.1,15.83,15.83,15.83,15.83-7.1,15.83-15.83-7.1-15.83-15.83-15.83Z"/>
  </g>
  <g id="BL04">
    <circle class="st2" cx="542.25" cy="920.76" r="20.31"/>
    <path class="st3" d="M542.25,945.55c-13.67,0-24.8-11.12-24.8-24.8s11.12-24.8,24.8-24.8,24.8,11.12,24.8,24.8-11.12,24.8-24.8,24.8ZM542.25,904.93c-8.73,0-15.83,7.1-15.83,15.83s7.1,15.83,15.83,15.83,15.83-7.1,15.83-15.83-7.1-15.83-15.83-15.83Z"/>
  </g>
  <g id="BL05">
    <circle class="st2" cx="542.25" cy="858.07" r="20.31"/>
    <path class="st3" d="M542.25,882.87c-13.67,0-24.8-11.12-24.8-24.8s11.12-24.8,24.8-24.8,24.8,11.12,24.8,24.8-11.12,24.8-24.8,24.8ZM542.25,842.25c-8.73,0-15.83,7.1-15.83,15.83s7.1,15.83,15.83,15.83,15.83-7.1,15.83-15.83-7.1-15.83-15.83-15.83Z"/>
  </g>
  <g id="BL06">
    <circle class="st2" cx="542.25" cy="795.39" r="20.31"/>
    <path class="st3" d="M542.25,820.19c-13.67,0-24.8-11.12-24.8-24.8s11.12-24.8,24.8-24.8,24.8,11.12,24.8,24.8-11.12,24.8-24.8,24.8ZM542.25,779.56c-8.73,0-15.83,7.1-15.83,15.83s7.1,15.83,15.83,15.83,15.83-7.1,15.83-15.83-7.1-15.83-15.83-15.83Z"/>
  </g>
  <g id="BL07">
    <circle class="st2" cx="542.25" cy="700.7" r="20.31"/>
    <path class="st3" d="M542.25,725.5c-13.67,0-24.8-11.12-24.8-24.8s11.12-24.8,24.8-24.8,24.8,11.12,24.8,24.8-11.12,24.8-24.8,24.8ZM542.25,684.87c-8.73,0-15.83,7.1-15.83,15.83s7.1,15.83,15.83,15.83,15.83-7.1,15.83-15.83-7.1-15.83-15.83-15.83Z"/>
  </g>
  <g id="BL08">
    <circle class="st2" cx="542.25" cy="640.28" r="20.31"/>
    <path class="st3" d="M542.25,665.07c-13.67,0-24.8-11.12-24.8-24.8s11.12-24.8,24.8-24.8,24.8,11.12,24.8,24.8-11.12,24.8-24.8,24.8ZM542.25,624.45c-8.73,0-15.83,7.1-15.83,15.83s7.1,15.83,15.83,15.83,15.83-7.1,15.83-15.83-7.1-15.83-15.83-15.83Z"/>
  </g>
  <g id="BL09">
    <circle class="st2" cx="542.25" cy="579.85" r="20.31"/>
    <path class="st3" d="M542.25,604.65c-13.67,0-24.8-11.12-24.8-24.8s11.12-24.8,24.8-24.8,24.8,11.12,24.8,24.8-11.12,24.8-24.8,24.8ZM542.25,564.03c-8.73,0-15.83,7.1-15.83,15.83s7.1,15.83,15.83,15.83,15.83-7.1,15.83-15.83-7.1-15.83-15.83-15.83Z"/>
  </g>
  <g id="BL10">
    <circle class="st2" cx="604.37" cy="521.12" r="20.31"/>
    <path class="st3" d="M604.37,545.92c-13.67,0-24.8-11.12-24.8-24.8s11.12-24.8,24.8-24.8,24.8,11.12,24.8,24.8-11.12,24.8-24.8,24.8ZM604.37,505.3c-8.73,0-15.83,7.1-15.83,15.83s7.1,15.83,15.83,15.83,15.83-7.1,15.83-15.83-7.1-15.83-15.83-15.83Z"/>
  </g>
  <g id="BL11">
    <circle class="st2" cx="685.55" cy="521.12" r="20.31"/>
    <path class="st3" d="M685.55,545.92c-13.67,0-24.8-11.12-24.8-24.8s11.12-24.8,24.8-24.8,24.8,11.12,24.8,24.8-11.12,24.8-24.8,24.8ZM685.55,505.3c-8.73,0-15.83,7.1-15.83,15.83s7.1,15.83,15.83,15.83,15.83-7.1,15.83-15.83-7.1-15.83-15.83-15.83Z"/>
  </g>
  <g id="BL12">
    <rect class="st2" x="852.87" y="480.5" width="40.62" height="81.25" rx="20.31" ry="20.31" transform="translate(352.06 1394.31) rotate(-90)"/>
    <path class="st3" d="M918.29,521.12c0,13.67-11.12,24.8-24.8,24.8h-40.62c-13.67,0-24.8-11.12-24.8-24.8s11.12-24.8,24.8-24.8h40.62c13.67,0,24.8,11.12,24.8,24.8ZM837.05,521.12c0,8.73,7.1,15.83,15.83,15.83h40.62c8.73,0,15.83-7.1,15.83-15.83s-7.1-15.83-15.83-15.83h-40.62c-8.73,0-15.83,7.1-15.83,15.83Z"/>
  </g>
  <g id="BL13">
    <circle class="st2" cx="961.95" cy="521.12" r="20.31"/>
    <path class="st3" d="M961.95,545.92c-13.67,0-24.8-11.12-24.8-24.8s11.12-24.8,24.8-24.8,24.8,11.12,24.8,24.8-11.12,24.8-24.8,24.8ZM961.95,505.3c-8.73,0-15.83,7.1-15.83,15.83s7.1,15.83,15.83,15.83,15.83-7.1,15.83-15.83-7.1-15.83-15.83-15.83Z"/>
  </g>
  <g id="BL14">
    <circle class="st2" cx="1056.82" cy="521.12" r="20.31"/>
    <path class="st3" d="M1056.82,545.92c-13.67,0-24.8-11.12-24.8-24.8s11.12-24.8,24.8-24.8,24.8,11.12,24.8,24.8-11.12,24.8-24.8,24.8ZM1056.82,505.3c-8.73,0-15.83,7.1-15.83,15.83s7.1,15.83,15.83,15.83,15.83-7.1,15.83-15.83-7.1-15.83-15.83-15.83Z"/>
  </g>
  <g id="BL15">
    <circle class="st2" cx="1166.66" cy="521.12" r="20.31"/>
    <path class="st3" d="M1166.66,545.92c-13.67,0-24.8-11.12-24.8-24.8s11.12-24.8,24.8-24.8,24.8,11.12,24.8,24.8-11.12,24.8-24.8,24.8ZM1166.66,505.3c-8.73,0-15.83,7.1-15.83,15.83s7.1,15.83,15.83,15.83,15.83-7.1,15.83-15.83-7.1-15.83-15.83-15.83Z"/>
  </g>
  <g id="BL16">
    <circle class="st2" cx="1253.64" cy="521.12" r="20.31"/>
    <path class="st3" d="M1253.64,545.92c-13.67,0-24.8-11.12-24.8-24.8s11.12-24.8,24.8-24.8,24.8,11.12,24.8,24.8-11.12,24.8-24.8,24.8ZM1253.64,505.3c-8.73,0-15.83,7.1-15.83,15.83s7.1,15.83,15.83,15.83,15.83-7.1,15.83-15.83-7.1-15.83-15.83-15.83Z"/>
  </g>
  <g id="BL17">
    <circle class="st2" cx="1340.61" cy="521.12" r="20.31"/>
    <path class="st3" d="M1340.61,545.92c-13.67,0-24.8-11.12-24.8-24.8s11.12-24.8,24.8-24.8,24.8,11.12,24.8,24.8-11.12,24.8-24.8,24.8ZM1340.61,505.3c-8.73,0-15.83,7.1-15.83,15.83s7.1,15.83,15.83,15.83,15.83-7.1,15.83-15.83-7.1-15.83-15.83-15.83Z"/>
  </g>
  <g id="BL18">
    <circle class="st2" cx="1427.58" cy="521.12" r="20.31"/>
    <path class="st3" d="M1427.58,545.92c-13.67,0-24.8-11.12-24.8-24.8s11.12-24.8,24.8-24.8,24.8,11.12,24.8,24.8-11.12,24.8-24.8,24.8ZM1427.58,505.3c-8.73,0-15.83,7.1-15.83,15.83s7.1,15.83,15.83,15.83,15.83-7.1,15.83-15.83-7.1-15.83-15.83-15.83Z"/>
  </g>
  <g id="BL19">
    <circle class="st2" cx="1523.09" cy="521.12" r="20.31"/>
    <path class="st3" d="M1523.09,545.92c-13.67,0-24.8-11.12-24.8-24.8s11.12-24.8,24.8-24.8,24.8,11.12,24.8,24.8-11.12,24.8-24.8,24.8ZM1523.09,505.3c-8.73,0-15.83,7.1-15.83,15.83s7.1,15.83,15.83,15.83,15.83-7.1,15.83-15.83-7.1-15.83-15.83-15.83Z"/>
  </g>
  <g id="BL20">
    <circle class="st2" cx="1598.53" cy="468.91" r="20.31"/>
    <path class="st3" d="M1598.53,493.7c-13.67,0-24.8-11.12-24.8-24.8s11.12-24.8,24.8-24.8,24.8,11.12,24.8,24.8-11.12,24.8-24.8,24.8ZM1598.53,453.08c-8.73,0-15.83,7.1-15.83,15.83s7.1,15.83,15.83,15.83,15.83-7.1,15.83-15.83-7.1-15.83-15.83-15.83Z"/>
  </g>
  <g id="BL21">
    <circle class="st2" cx="1598.53" cy="402.34" r="20.31"/>
    <path class="st3" d="M1598.53,427.14c-13.67,0-24.8-11.12-24.8-24.8s11.12-24.8,24.8-24.8,24.8,11.12,24.8,24.8-11.12,24.8-24.8,24.8ZM1598.53,386.52c-8.73,0-15.83,7.1-15.83,15.83s7.1,15.83,15.83,15.83,15.83-7.1,15.83-15.83-7.1-15.83-15.83-15.83Z"/>
  </g>
  <g id="BL22">
    <circle class="st2" cx="1598.53" cy="335.78" r="20.31"/>
    <path class="st3" d="M1598.53,360.58c-13.67,0-24.8-11.12-24.8-24.8s11.12-24.8,24.8-24.8,24.8,11.12,24.8,24.8-11.12,24.8-24.8,24.8ZM1598.53,319.95c-8.73,0-15.83,7.1-15.83,15.83s7.1,15.83,15.83,15.83,15.83-7.1,15.83-15.83-7.1-15.83-15.83-15.83Z"/>
  </g>
  <g id="BL23">
    <rect class="st2" x="1634.33" y="233.44" width="40.62" height="81.25" rx="20.31" ry="20.31" transform="translate(1380.57 1928.7) rotate(-90)"/>
    <path class="st3" d="M1699.75,274.07c0,13.67-11.12,24.8-24.8,24.8h-40.62c-13.67,0-24.8-11.12-24.8-24.8s11.12-24.8,24.8-24.8h40.62c13.67,0,24.8,11.12,24.8,24.8ZM1618.5,274.07c0,8.73,7.1,15.83,15.83,15.83h40.62c8.73,0,15.83-7.1,15.83-15.83s-7.1-15.83-15.83-15.83h-40.62c-8.73,0-15.83,7.1-15.83,15.83Z"/>
  </g>
</svg>